# xmcd
#
# Track frame offsets: 
#        150
#        12389
#        28193
#        53043
#        73988
#        91054
#        112949
#        134272
#        152063
#        175583
#        221510
#        239076
#        267825
#        296781
#        314343
#
# Disc length: 4505 seconds
#
# Revision: 0
# Processed by: cddbd v1.5.1PL0 Copyright (c) Steve Scherf et al.
# Submitted via: ExactAudioCopy v0.95a5
#
DISCID=d811970f
DTITLE=R.Kelly - Happy People
DYEAR=2004
DGENRE=Blues
TTITLE0=Intro (Weatherman)
TTITLE1=Red Carpet
TTITLE2=Love Signals
TTITLE3=Love Street
TTITLE4=Ladies Night (Teart Her Like Heaven)
TTITLE5=If
TTITLE6=Greatest Show On Earth
TTITLE7=Steppin Into Heaven
TTITLE8=If I Can Make The World Dance
TTITLE9=Happy People
TTITLE10=3 Way Phone Call
TTITLE11=U Saved Me
TTITLE12=Prayers Changes
TTITLE13=How Did U Manage
TTITLE14=I Surrender
EXTD=
EXTT0=
EXTT1=
EXTT2=
EXTT3=
EXTT4=
EXTT5=
EXTT6=
EXTT7=
EXTT8=
EXTT9=
EXTT10=
EXTT11=
EXTT12=
EXTT13=
EXTT14=
PLAYORDER=
